<svg width="50" height="50" xmlns="http://www.w3.org/2000/svg">
 <style type="text/css">.st0{fill:none;stroke:#000000;stroke-width:7;stroke-miterlimit:10;}</style>

 <g>
  <title>background</title>
  <rect fill="none" id="canvas_background" height="52" width="52" y="-1" x="-1"/>
 </g>
 <g>
  <title>Layer 1</title>
  <circle id="svg_1" r="3.4" cy="10.979162" cx="10.158336"/>
  <path id="svg_2" d="m12.558336,15.379162l-4.9,0c-1.9,0 -3.4,1.5 -3.4,3.4l0,7c0,1.7 1.2,3 2.8,3.4l0,7.6c0,1.4 1.2,2.5 2.5,2.5l1.1,0c1.4,0 2.5,-1.2 2.5,-2.5l0,-7.6c1.6,-0.3 2.8,-1.8 2.8,-3.4l0,-7c0,-1.8 -1.5,-3.4 -3.4,-3.4z"/>
  <rect id="svg_3" height="12.3" width="12.3" y="40.579162" x="3.958336"/>
  <circle id="svg_4" r="3.4" cy="3.479162" cx="24.958336"/>
  <path id="svg_5" d="m27.458336,7.879162l-4.9,0c-1.9,0 -3.4,1.5 -3.4,3.4l0,7c0,1.7 1.2,3 2.8,3.4l0,7.6c0,1.4 1.2,2.5 2.5,2.5l1.1,0c1.4,0 2.5,-1.2 2.5,-2.5l0,-7.6c1.6,-0.3 2.8,-1.8 2.8,-3.4l0,-7c0,-1.8 -1.6,-3.4 -3.4,-3.4z"/>
  <rect id="svg_6" height="19.8" width="12.3" y="33.079162" x="18.858336"/>
  <circle id="svg_7" r="3.4" cy="16.979162" cx="39.858336"/>
  <path id="svg_8" d="m42.358336,21.379162l-4.9,0c-1.9,0 -3.4,1.5 -3.4,3.4l0,7c0,1.7 1.2,3 2.8,3.4l0,7.6c0,1.4 1.2,2.5 2.5,2.5l1.1,0c1.4,0 2.5,-1.2 2.5,-2.5l0,-7.6c1.6,-0.3 2.8,-1.8 2.8,-3.4l0,-7c0,-1.8 -1.6,-3.4 -3.4,-3.4z"/>
  <rect id="svg_9" height="6.3" width="12.3" y="46.579162" x="33.758336"/>
 </g>
</svg>