<?xml version="1.0" standalone="no"?>
<!DOCTYPE svg PUBLIC "-//W3C//DTD SVG 20010904//EN"
 "http://www.w3.org/TR/2001/REC-SVG-20010904/DTD/svg10.dtd">
<svg version="1.0" xmlns="http://www.w3.org/2000/svg"
 width="700.000000pt" height="700.000000pt" viewBox="0 0 700.000000 700.000000"
 preserveAspectRatio="xMidYMid meet">
<metadata>
Created by potrace 1.11, written by Peter Selinger 2001-2013
</metadata>
<g transform="translate(0.000000,700.000000) scale(0.100000,-0.100000)"
fill="#000000" stroke="none">
<path d="M3380 6974 c-177 -47 -311 -184 -350 -359 -50 -225 79 -463 296 -545
69 -25 96 -30 169 -30 162 -1 308 79 399 216 73 111 94 268 52 397 -62 197
-227 324 -431 332 -49 2 -102 -2 -135 -11z"/>
<path d="M1313 5925 c-82 -19 -162 -64 -224 -126 -255 -255 -153 -672 193
-790 65 -22 199 -24 268 -3 156 46 273 160 326 316 16 49 24 195 12 238 -3 8
-10 34 -17 58 -29 102 -128 215 -235 268 -39 19 -82 37 -96 40 -53 11 -177 11
-227 -1z"/>
<path d="M3095 5893 c-210 -36 -360 -176 -402 -375 -6 -28 -10 -266 -10 -590
0 -586 1 -600 54 -705 42 -85 136 -174 228 -217 22 -10 48 -22 57 -27 10 -5
25 -9 33 -9 8 0 15 -3 16 -7 1 -5 2 -260 4 -568 1 -370 6 -571 13 -593 31 -94
105 -176 201 -221 53 -25 64 -26 216 -26 154 1 162 2 216 28 31 15 75 47 99
70 46 45 97 141 104 197 3 19 5 278 5 576 l1 540 49 13 c139 35 285 191 325
346 22 83 23 1135 2 1205 -42 141 -134 253 -258 316 -93 47 -136 51 -548 51
-212 -1 -394 -2 -405 -4z"/>
<path d="M5468 5084 c-199 -47 -349 -225 -361 -428 -22 -378 381 -631 708
-446 176 100 274 321 230 521 -21 97 -107 222 -192 280 -110 76 -255 104 -385
73z"/>
<path d="M1028 4845 c-2 -2 -21 -5 -44 -8 -187 -26 -346 -188 -381 -387 -12
-70 -9 -1090 4 -1152 24 -118 76 -202 175 -282 26 -21 82 -53 125 -72 l78 -33
5 -573 5 -573 27 -57 c27 -57 118 -158 144 -158 8 0 14 -4 14 -8 0 -22 101
-37 245 -37 141 0 153 2 206 26 103 48 188 158 205 264 3 22 6 282 7 578 0
296 4 540 8 543 5 3 18 7 29 9 45 9 148 67 191 107 70 68 112 135 145 233 15
44 17 113 18 595 2 578 -1 614 -46 710 -44 94 -118 171 -209 220 -103 55 -142
59 -565 58 -211 -1 -385 -2 -386 -3z"/>
<path d="M5170 4003 c-42 -6 -143 -45 -185 -71 -93 -59 -171 -166 -200 -277
-21 -83 -22 -1142 -1 -1222 42 -156 171 -292 322 -340 l54 -17 1 -550 c0 -303
3 -564 5 -580 15 -93 106 -206 204 -254 53 -26 61 -27 215 -27 151 0 163 1
215 26 72 34 115 72 157 137 56 87 58 113 58 710 l-1 542 22 0 c37 0 159 68
211 118 64 61 116 143 139 218 16 54 18 109 19 609 1 393 -2 564 -11 600 -38
162 -159 297 -320 357 -57 21 -73 22 -469 23 -225 1 -421 0 -435 -2z"/>
<path d="M2640 1185 l0 -1185 863 0 862 0 -2 1163 c-1 639 -2 1172 -2 1185
l-1 22 -860 0 -860 0 0 -1185z"/>
<path d="M555 662 l0 -657 860 -3 861 -2 -1 657 0 658 -860 2 -861 2 1 -657z"/>
<path d="M4725 240 l0 -240 863 0 862 0 0 240 0 239 -862 0 -863 0 0 -239z"/>
</g>
</svg>
