<?xml version="1.0" standalone="no"?>
<!DOCTYPE svg PUBLIC "-//W3C//DTD SVG 20010904//EN"
 "http://www.w3.org/TR/2001/REC-SVG-20010904/DTD/svg10.dtd">
<svg version="1.0" xmlns="http://www.w3.org/2000/svg"
 width="700.000000pt" height="700.000000pt" viewBox="0 0 700.000000 700.000000"
 preserveAspectRatio="xMidYMid meet">
<metadata>
Created by potrace 1.11, written by Peter Selinger 2001-2013
</metadata>
<g transform="translate(0.000000,700.000000) scale(0.100000,-0.100000)"
fill="#000000" stroke="none">
<path d="M3425 6983 c-97 -13 -200 -68 -274 -146 -84 -88 -122 -180 -127 -309
-17 -429 502 -652 807 -347 153 153 180 389 66 581 -52 88 -151 166 -258 202
-48 16 -162 27 -214 19z"/>
<path d="M1305 5920 c-91 -24 -152 -59 -219 -126 -93 -94 -134 -195 -134 -327
0 -142 39 -239 138 -338 93 -93 197 -137 331 -137 45 0 104 6 133 15 161 47
291 185 330 350 14 63 13 207 -3 227 -4 6 -11 25 -15 41 -11 44 -54 113 -104
167 -113 121 -292 171 -457 128z"/>
<path d="M3060 5883 c-181 -36 -310 -163 -367 -358 -10 -33 -12 -1119 -2
-1171 13 -73 74 -188 128 -243 53 -53 145 -111 209 -129 27 -8 42 -19 43 -30
1 -9 2 -264 3 -567 2 -473 5 -556 19 -591 37 -99 96 -162 197 -212 53 -26 61
-27 215 -27 160 1 160 1 220 32 77 40 136 102 172 178 l28 60 3 571 3 572 28
5 c108 22 255 143 306 252 55 117 55 114 52 725 -2 562 -2 565 -25 621 -59
147 -168 252 -310 301 -65 22 -78 22 -463 23 -288 1 -413 -2 -459 -12z"/>
<path d="M5515 5093 c-116 -22 -188 -58 -266 -135 -182 -179 -189 -474 -16
-657 197 -206 514 -202 705 9 37 42 89 142 102 200 68 292 -139 571 -435 584
-38 1 -79 1 -90 -1z"/>
<path d="M990 4838 c-128 -19 -273 -122 -332 -235 -61 -116 -61 -119 -62 -698
-1 -381 2 -549 11 -598 18 -100 57 -172 134 -250 64 -63 99 -85 222 -135 l27
-12 1 -552 c0 -304 2 -564 5 -578 7 -40 51 -122 86 -161 40 -44 97 -80 158
-101 64 -21 258 -23 335 -3 136 36 243 153 261 287 4 24 7 283 8 577 l1 534
40 14 c163 55 278 173 330 338 17 56 19 99 18 600 0 297 -3 556 -5 575 -9 61
-39 133 -81 195 -46 68 -60 81 -140 135 -108 72 -122 74 -567 75 -217 1 -420
-3 -450 -7z"/>
<path d="M5190 4003 c-151 -19 -306 -125 -364 -247 -56 -119 -55 -113 -56
-714 0 -598 1 -605 52 -707 55 -107 172 -206 284 -242 l54 -17 0 -540 c1 -298
3 -559 6 -581 8 -56 49 -136 93 -180 88 -92 169 -117 357 -112 114 3 136 6
186 29 110 51 192 163 206 281 4 34 7 296 7 582 l-1 520 53 16 c113 36 217
123 278 234 60 111 60 107 60 715 0 523 -1 558 -20 615 -28 87 -61 141 -125
205 -61 61 -120 98 -202 126 -48 17 -92 19 -448 19 -217 1 -406 -1 -420 -2z"/>
<path d="M2640 1185 l0 -1185 863 0 862 0 -2 1163 c-1 639 -2 1172 -2 1185
l-1 22 -860 0 -860 0 0 -1185z"/>
<path d="M555 662 l0 -657 860 -3 861 -2 -1 657 0 658 -860 2 -861 2 1 -657z"/>
<path d="M4725 240 l0 -240 863 0 862 0 0 240 0 239 -862 0 -863 0 0 -239z"/>
</g>
</svg>
